<svg xmlns="http://www.w3.org/2000/svg" width="1300" height="3160" viewBox="0 0 1300 3160"><rect width="100%" height="100%" fill="#f8fafc"/><g font-family="DejaVu Sans,Arial,sans-serif" fill="#213341"><text x="35" y="40" font-size="26" text-anchor="start">Гараж · развёртки стен</text><text x="35" y="75" font-size="20" text-anchor="start">Стена 1 · 6376 мм · F1-W06 + F1-W07 + GARAGE-W01</text><polygon points="65,340 65,114.99999999999997 69.90126409292792,114.99999999999997 74.80252818585582,114.99999999999997 79.70379227878374,114.99999999999997 84.60505637171165,114.99999999999997 89.50632046463956,114.99999999999997 94.40758455756747,114.99999999999997 99.30884865049539,114.99999999999997 104.21011274342331,114.99999999999997 109.11137683635121,114.99999999999997 114.01264092927912,114.99999999999997 118.91390502220705,114.99999999999997 123.81516911513495,114.99999999999997 128.71643320806285,114.99999999999997 133.61769730099078,114.99999999999997 138.5189613939187,114.99999999999997 143.42022548684662,114.99999999999997 148.32148957977452,114.99999999999997 153.22275367270242,114.99999999999997 158.12401776563036,114.99999999999997 163.02528185855823,114.99999999999997 167.92654595148616,114.99999999999997 172.8278100444141,114.99999999999997 177.729074137342,114.99999999999997 182.6303382302699,114.99999999999997 187.53160232319783,114.99999999999997 192.4328664161257,114.99999999999997 197.33413050905364,114.99999999999997 202.23539460198157,114.99999999999997 207.13665869490947,114.99999999999997 212.03792278783737,114.99999999999997 216.9391868807653,114.99999999999997 221.8404509736932,114.99999999999997 226.74171506662114,114.99999999999997 231.64297915954904,114.99999999999997 236.54424325247695,114.99999999999997 241.44550734540488,114.99999999999997 246.34677143833275,114.99999999999997 251.24803553126068,114.99999999999997 256.1492996241886,114.99999999999997 261.05056371711646,114.99999999999997 265.9518278100444,114.99999999999997 270.8530919029723,114.99999999999997 275.75435599590026,114.99999999999997 280.6556200888282,114.99999999999997 285.5568841817561,114.99999999999997 290.458148274684,114.99999999999997 295.35941236761187,114.99999999999997 300.2606764605398,114.99999999999997 305.16194055346773,114.99999999999997 310.06320464639566,114.99999999999997 314.9644687393236,114.99999999999997 319.8657328322514,114.99999999999997 324.7669969251794,114.99999999999997 329.6682610181073,114.99999999999997 334.5695251110352,114.99999999999997 339.47078920396314,114.99999999999997 344.37205329689107,114.99999999999997 349.27331738981894,114.99999999999997 354.1745814827468,114.99999999999997 359.07584557567475,114.99999999999997 363.9771096686027,114.99999999999997 368.8783737615306,114.99999999999997 373.7796378544585,114.99999999999997 378.6809019473864,114.99999999999997 383.58216604031435,114.99999999999997 388.4834301332423,114.99999999999997 393.38469422617015,114.99999999999997 398.2859583190981,114.99999999999997 403.187222412026,114.99999999999997 408.0884865049539,114.99999999999997 412.9897505978818,114.99999999999997 417.89101469080975,114.99999999999997 422.7922787837377,114.99999999999997 427.6935428766655,114.99999999999997 432.59480696959344,114.99999999999997 437.49607106252137,114.99999999999997 442.39733515544924,114.99999999999997 447.2985992483772,114.99999999999997 452.1998633413051,114.99999999999997 457.101127434233,114.99999999999997 462.0023915271609,114.99999999999997 466.90365562008884,114.99999999999997 471.8049197130168,114.99999999999997 476.70618380594465,114.99999999999997 481.6074478988726,114.99999999999997 486.5087119918005,114.99999999999997 491.4099760847284,114.99999999999997 496.3112401776563,114.99999999999997 501.21250427058425,114.99999999999997 506.1137683635122,114.99999999999997 511.01503245644005,114.99999999999997 515.916296549368,114.99999999999997 520.8175606422959,114.99999999999997 525.7188247352237,114.99999999999997 530.6200888281517,114.99999999999997 535.5213529210796,114.99999999999997 540.4226170140075,114.99999999999997 545.3238811069355,114.99999999999997 550.2251451998634,114.99999999999997 555.1264092927913,114.99999999999997 555.1264092927913,340" fill="#dde6ea" stroke="#516575" stroke-width="2"/><text x="35" y="375" font-size="18" text-anchor="start">a → b · высота 2927 мм–2927 мм · толщина 300 мм / 600 мм</text><text x="35" y="455" font-size="20" text-anchor="start">Стена 2 · 3177 мм · F1-W08</text><polygon points="65,720 65,495 67.44217628971643,495 69.88435257943287,495 72.3265288691493,495 74.76870515886573,495 77.21088144858217,495 79.6530577382986,495 82.09523402801503,495 84.53741031773147,495 86.9795866074479,495 89.42176289716433,495 91.86393918688077,495 94.3061154765972,495 96.74829176631363,495 99.19046805603007,495 101.6326443457465,495 104.07482063546294,495 106.51699692517937,495 108.9591732148958,495 111.40134950461223,495 113.84352579432866,495 116.28570208404511,495 118.72787837376154,495 121.17005466347797,495 123.6122309531944,495 126.05440724291083,495 128.49658353262726,495 130.93875982234368,495 133.38093611206014,495 135.82311240177657,495 138.265288691493,495 140.70746498120945,495 143.14964127092588,495 145.5918175606423,495 148.03399385035874,495 150.47617014007517,495 152.9183464297916,495 155.36052271950803,495 157.80269900922445,495 160.2448752989409,495 162.6870515886573,495 165.12922787837377,495 167.57140416809023,495 170.01358045780663,495 172.45575674752308,495 174.8979330372395,495 177.34010932695594,495 179.78228561667237,495 182.2244619063888,495 184.66663819610523,495 187.10881448582165,495 189.5509907755381,495 191.9931670652545,495 194.43534335497097,495 196.8775196446874,495 199.31969593440382,495 201.76187222412028,495 204.2040485138367,495 206.64622480355314,495 209.08840109326957,495 211.530577382986,495 213.97275367270242,495 216.41492996241888,495 218.8571062521353,495 221.29928254185174,495 223.74145883156817,495 226.1836351212846,495 228.62581141100102,495 231.06798770071745,495 233.5101639904339,495 235.95234028015034,495 238.39451656986677,495 240.83669285958322,495 243.27886914929962,495 245.72104543901605,495 248.1632217287325,495 250.60539801844894,495 253.04757430816537,495 255.48975059788182,495 257.93192688759825,495 260.3741031773146,495 262.8162794670311,495 265.25845575674754,495 267.70063204646397,495 270.14280833618045,495 272.5849846258968,495 275.02716091561325,495 277.4693372053297,495 279.91151349504617,495 282.35368978476254,495 284.795866074479,495 287.2380423641954,495 289.6802186539119,495 292.1223949436283,495 294.56457123334474,495 297.00674752306116,495 299.4489238127776,495 301.891100102494,495 304.33327639221045,495 306.77545268192694,495 309.2176289716433,495 309.2176289716433,720" fill="#dde6ea" stroke="#516575" stroke-width="2"/><rect x="141.10181072770757" y="528.5924154424325" width="75.33310556884186" height="164.50290399726686" fill="#f8fafc" stroke="#467185"/><text x="178.7683635121285" y="685.0953194396993" font-size="12" text-anchor="middle">F1-EXT02</text><text x="35" y="755" font-size="18" text-anchor="start">a → b · высота 2927 мм–2927 мм · толщина 600 мм</text><text x="35" y="835" font-size="20" text-anchor="start">Стена 3 · 533 мм · GARAGE-W05</text><polygon points="65,1100 65,875 65.40971984967544,875 65.81943969935087,875 66.2291595490263,875 66.63887939870175,875 67.04859924837717,875 67.45831909805261,875 67.86803894772805,875 68.27775879740348,875 68.68747864707892,875 69.09719849675436,875 69.50691834642979,875 69.91663819610523,875 70.32635804578067,875 70.7360778954561,875 71.14579774513153,875 71.55551759480697,875 71.96523744448241,875 72.37495729415784,875 72.78467714383328,875 73.19439699350872,875 73.60411684318414,875 74.01383669285958,875 74.42355654253502,875 74.83327639221045,875 75.24299624188589,875 75.65271609156133,875 76.06243594123676,875 76.4721557909122,875 76.88187564058764,875 77.29159549026306,875 77.7013153399385,875 78.11103518961394,875 78.52075503928937,875 78.93047488896481,875 79.34019473864025,875 79.74991458831568,875 80.15963443799112,875 80.56935428766656,875 80.979074137342,875 81.38879398701742,875 81.79851383669286,875 82.20823368636829,875 82.61795353604373,875 83.02767338571917,875 83.43739323539461,875 83.84711308507003,875 84.25683293474547,875 84.66655278442092,875 85.07627263409634,875 85.48599248377178,875 85.89571233344722,875 86.30543218312266,875 86.71515203279809,875 87.12487188247353,875 87.53459173214895,875 87.9443115818244,875 88.35403143149983,875 88.76375128117527,875 89.1734711308507,875 89.58319098052614,875 89.99291083020157,875 90.402630679877,875 90.81235052955245,875 91.22207037922789,875 91.63179022890331,875 92.04151007857875,875 92.45122992825418,875 92.86094977792962,875 93.27066962760506,875 93.6803894772805,875 94.09010932695593,875 94.49982917663137,875 94.90954902630679,875 95.31926887598223,875 95.72898872565767,875 96.13870857533311,875 96.54842842500854,875 96.95814827468398,875 97.3678681243594,875 97.77758797403484,875 98.18730782371028,875 98.59702767338572,875 99.00674752306116,875 99.41646737273659,875 99.82618722241203,875 100.23590707208746,875 100.6456269217629,875 101.05534677143834,875 101.46506662111378,875 101.8747864707892,875 102.28450632046464,875 102.69422617014007,875 103.10394601981551,875 103.51366586949095,875 103.92338571916639,875 104.33310556884183,875 104.74282541851726,875 105.15254526819268,875 105.56226511786812,875 105.97198496754356,875 105.97198496754365,1100" fill="#dde6ea" stroke="#516575" stroke-width="2"/><text x="35" y="1135" font-size="18" text-anchor="start">a → b · высота 2927 мм–2927 мм · толщина 428 мм</text><text x="35" y="1215" font-size="20" text-anchor="start">Стена 4 · 428 мм · GARAGE-W05</text><polygon points="65,1480 65,1255 65.32900580799453,1255 65.65801161598907,1255 65.9870174239836,1255 66.31602323197814,1255 66.64502903997267,1255 66.9740348479672,1255 67.30304065596174,1255 67.63204646395627,1255 67.9610522719508,1255 68.29005807994534,1255 68.61906388793987,1255 68.94806969593441,1255 69.27707550392894,1255 69.60608131192348,1255 69.93508711991801,1255 70.26409292791254,1255 70.59309873590708,1255 70.92210454390161,1255 71.25111035189614,1255 71.58011615989068,1255 71.90912196788521,1255 72.23812777587975,1255 72.56713358387428,1255 72.89613939186881,1255 73.22514519986333,1255 73.55415100785788,1255 73.8831568158524,1255 74.21216262384695,1255 74.54116843184147,1255 74.870174239836,1255 75.19918004783054,1255 75.52818585582507,1255 75.8571916638196,1255 76.18619747181414,1255 76.51520327980867,1255 76.84420908780321,1255 77.17321489579774,1255 77.50222070379228,1255 77.83122651178681,1255 78.16023231978134,1255 78.48923812777588,1255 78.81824393577041,1255 79.14724974376495,1255 79.47625555175948,1255 79.80526135975401,1255 80.13426716774855,1255 80.46327297574308,1255 80.79227878373761,1255 81.12128459173215,1255 81.45029039972668,1255 81.77929620772122,1255 82.10830201571575,1255 82.43730782371028,1255 82.76631363170482,1255 83.09531943969935,1255 83.42432524769389,1255 83.75333105568842,1255 84.08233686368295,1255 84.41134267167749,1255 84.74034847967202,1255 85.06935428766656,1255 85.39836009566109,1255 85.72736590365562,1255 86.05637171165016,1255 86.38537751964469,1255 86.71438332763923,1255 87.04338913563376,1255 87.3723949436283,1255 87.70140075162283,1255 88.03040655961735,1255 88.3594123676119,1255 88.68841817560642,1255 89.01742398360096,1255 89.34642979159548,1255 89.67543559959003,1255 90.00444140758457,1255 90.3334472155791,1255 90.66245302357363,1255 90.99145883156815,1255 91.32046463956269,1255 91.64947044755723,1255 91.97847625555175,1255 92.3074820635463,1255 92.63648787154082,1255 92.96549367953537,1255 93.29449948752989,1255 93.62350529552444,1255 93.95251110351896,1255 94.28151691151349,1255 94.61052271950803,1255 94.93952852750256,1255 95.2685343354971,1255 95.59754014349163,1255 95.92654595148616,1255 96.2555517594807,1255 96.58455756747523,1255 96.91356337546976,1255 97.2425691834643,1255 97.57157499145883,1255 97.90058079945337,1255 97.90058079945342,1480" fill="#dde6ea" stroke="#516575" stroke-width="2"/><text x="35" y="1515" font-size="18" text-anchor="start">a → b · высота 2927 мм–2927 мм · толщина </text><text x="35" y="1595" font-size="20" text-anchor="start">Стена 5 · 1255 мм · F1-W03 + F1-W08 + GARAGE-W05</text><polygon points="65,1860 65,1635 65.9647249743765,1635 66.92944994875299,1635 67.89417492312948,1635 68.85889989750598,1635 69.82362487188247,1635 70.78834984625897,1635 71.75307482063546,1635 72.71779979501196,1635 73.68252476938845,1635 74.64724974376495,1635 75.61197471814144,1635 76.57669969251793,1635 77.54142466689443,1635 78.50614964127092,1635 79.47087461564742,1635 80.43559959002391,1635 81.4003245644004,1635 82.3650495387769,1635 83.3297745131534,1635 84.29449948752989,1635 85.2592244619064,1635 86.22394943628288,1635 87.18867441065939,1635 88.15339938503587,1635 89.11812435941236,1635 90.08284933378886,1635 91.04757430816535,1635 92.01229928254185,1635 92.97702425691836,1635 93.94174923129484,1635 94.90647420567134,1635 95.87119918004782,1635 96.83592415442433,1635 97.80064912880081,1635 98.76537410317732,1635 99.7300990775538,1635 100.69482405193031,1635 101.65954902630679,1635 102.6242740006833,1635 103.58899897505978,1635 104.55372394943629,1635 105.51844892381278,1635 106.48317389818928,1635 107.44789887256577,1635 108.41262384694227,1635 109.37734882131876,1635 110.34207379569526,1635 111.30679877007175,1635 112.27152374444825,1635 113.23624871882473,1635 114.20097369320123,1635 115.16569866757771,1635 116.13042364195422,1635 117.0951486163307,1635 118.05987359070721,1635 119.0245985650837,1635 119.9893235394602,1635 120.9540485138367,1635 121.91877348821319,1635 122.88349846258969,1635 123.84822343696618,1635 124.81294841134267,1635 125.77767338571917,1635 126.74239836009566,1635 127.70712333447216,1635 128.67184830884867,1635 129.63657328322515,1635 130.60129825760163,1635 131.56602323197814,1635 132.53074820635464,1635 133.49547318073112,1635 134.4601981551076,1635 135.4249231294841,1635 136.38964810386062,1635 137.3543730782371,1635 138.31909805261358,1635 139.2838230269901,1635 140.2485480013666,1635 141.2132729757431,1635 142.17799795011956,1635 143.14272292449607,1635 144.10744789887258,1635 145.07217287324906,1635 146.03689784762557,1635 147.00162282200205,1635 147.96634779637856,1635 148.93107277075504,1635 149.89579774513155,1635 150.86052271950803,1635 151.82524769388453,1635 152.78997266826104,1635 153.75469764263752,1635 154.719422617014,1635 155.6841475913905,1635 156.64887256576702,1635 157.6135975401435,1635 158.57832251451998,1635 159.5430474888965,1635 160.507772463273,1635 161.47249743764945,1635 161.47249743764954,1860" fill="#dde6ea" stroke="#516575" stroke-width="2"/><text x="35" y="1895" font-size="18" text-anchor="start">a → b · высота 2927 мм–2927 мм · толщина 428 мм / 600 мм</text><text x="35" y="1975" font-size="20" text-anchor="start">Стена 6 · 2756 мм · GARAGE-W02</text><polygon points="65,2240 65,2015 67.11855141783396,2015 69.23710283566793,2015 71.35565425350188,2015 73.47420567133584,2015 75.5927570891698,2015 77.71130850700376,2015 79.82985992483772,2015 81.94841134267168,2015 84.06696276050565,2015 86.1855141783396,2015 88.30406559617356,2015 90.42261701400751,2015 92.54116843184147,2015 94.65971984967544,2015 96.7782712675094,2015 98.89682268534335,2015 101.01537410317732,2015 103.13392552101128,2015 105.25247693884523,2015 107.3710283566792,2015 109.48957977451316,2015 111.60813119234712,2015 113.72668261018107,2015 115.84523402801503,2015 117.963785445849,2015 120.08233686368295,2015 122.20088828151691,2015 124.31943969935088,2015 126.43799111718482,2015 128.5565425350188,2015 130.67509395285276,2015 132.7936453706867,2015 134.91219678852067,2015 137.03074820635464,2015 139.1492996241886,2015 141.26785104202256,2015 143.38640245985653,2015 145.50495387769047,2015 147.62350529552444,2015 149.7420567133584,2015 151.86060813119235,2015 153.97915954902632,2015 156.09771096686026,2015 158.21626238469423,2015 160.33481380252817,2015 162.45336522036214,2015 164.57191663819611,2015 166.69046805603006,2015 168.80901947386405,2015 170.927570891698,2015 173.04612230953194,2015 175.1646737273659,2015 177.28322514519988,2015 179.40177656303382,2015 181.5203279808678,2015 183.63887939870176,2015 185.7574308165357,2015 187.87598223436964,2015 189.99453365220364,2015 192.11308507003758,2015 194.23163648787155,2015 196.3501879057055,2015 198.46873932353947,2015 200.58729074137344,2015 202.7058421592074,2015 204.82439357704135,2015 206.9429449948753,2015 209.06149641270926,2015 211.18004783054323,2015 213.2985992483772,2015 215.41715066621114,2015 217.5357020840451,2015 219.65425350187908,2015 221.77280491971302,2015 223.891356337547,2015 226.00990775538094,2015 228.12845917321488,2015 230.24701059104888,2015 232.36556200888282,2015 234.4841134267168,2015 236.60266484455073,2015 238.7212162623847,2015 240.83976768021867,2015 242.95831909805264,2015 245.07687051588658,2015 247.19542193372052,2015 249.3139733515545,2015 251.43252476938846,2015 253.55107618722244,2015 255.66962760505638,2015 257.78817902289035,2015 259.9067304407243,2015 262.0252818585583,2015 264.14383327639223,2015 266.26238469422617,2015 268.3809361120601,2015 270.49948752989405,2015 272.6180389477281,2015 274.73659036556205,2015 276.855141783396,2015 276.855141783396,2240" fill="#dde6ea" stroke="#516575" stroke-width="2"/><text x="35" y="2275" font-size="18" text-anchor="start">a → b · высота 2927 мм–2927 мм · толщина 300 мм</text><text x="35" y="2355" font-size="20" text-anchor="start">Стена 7 · 7131 мм · GARAGE-W03</text><polygon points="65,2620 65,2395 70.48163648787154,2395 75.96327297574308,2395 81.44490946361462,2395 86.92654595148616,2395 92.4081824393577,2395 97.88981892722924,2395 103.3714554151008,2395 108.85309190297232,2395 114.33472839084388,2395 119.8163648787154,2395 125.29800136658696,2395 130.77963785445849,2395 136.26127434233004,2395 141.7429108302016,2395 147.22454731807312,2395 152.70618380594465,2395 158.1878202938162,2395 163.66945678168776,2395 169.15109326955928,2395 174.6327297574308,2395 180.11436624530234,2395 185.59600273317392,2395 191.07763922104544,2395 196.559275708917,2395 202.04091219678853,2395 207.52254868466008,2395 213.0041851725316,2395 218.48582166040316,2395 223.9674581482747,2395 229.44909463614624,2395 234.93073112401777,2395 240.41236761188932,2395 245.89400409976085,2395 251.3756405876324,2395 256.85727707550393,2395 262.3389135633755,2395 267.820550051247,2395 273.30218653911857,2395 278.7838230269901,2395 284.2654595148616,2395 289.7470960027332,2395 295.22873249060467,2395 300.71036897847625,2395 306.19200546634784,2395 311.67364195421936,2395 317.1552784420909,2395 322.6369149299624,2395 328.118551417834,2395 333.6001879057055,2395 339.08182439357705,2395 344.5634608814486,2395 350.04509736932016,2395 355.5267338571917,2395 361.0083703450632,2395 366.49000683293474,2395 371.9716433208063,2395 377.4532798086778,2395 382.9349162965494,2395 388.41655278442096,2395 393.8981892722925,2395 399.379825760164,2395 404.86146224803554,2395 410.3430987359071,2395 415.82473522377865,2395 421.3063717116502,2395 426.7880081995217,2395 432.2696446873933,2395 437.7512811752648,2395 443.23291766313633,2395 448.71455415100786,2395 454.19619063887944,2395 459.67782712675097,2395 465.1594636146225,2395 470.641100102494,2395 476.1227365903656,2395 481.6043730782371,2395 487.08600956610866,2395 492.5676460539802,2395 498.04928254185177,2395 503.53091902972324,2395 509.0125555175948,2395 514.4941920054664,2395 519.975828493338,2395 525.4574649812093,2395 530.9391014690809,2395 536.4207379569525,2395 541.9023744448241,2395 547.3840109326957,2395 552.8656474205671,2395 558.3472839084387,2395 563.8289203963102,2395 569.3105568841818,2395 574.7921933720534,2395 580.2738298599248,2395 585.7554663477964,2395 591.237102835668,2395 596.7187393235395,2395 602.200375811411,2395 607.6820122992825,2395 613.1636487871541,2395 613.1636487871541,2620" fill="#dde6ea" stroke="#516575" stroke-width="2"/><text x="35" y="2655" font-size="18" text-anchor="start">a → b · высота 2927 мм–2927 мм · толщина 300 мм</text><text x="35" y="2735" font-size="20" text-anchor="start">Стена 8 · 6361 мм · GARAGE-W04</text><polygon points="65,3000 65,2775 69.88981038606082,2775 74.77962077212163,2775 79.66943115818245,2775 84.55916467372737,2775 89.44897505978818,2775 94.338785445849,2775 99.22859583190981,2775 104.11840621797062,2775 109.00821660403143,2775 113.89802699009225,2775 118.78776050563718,2775 123.67757089169798,2775 128.5673812777588,2775 133.45719166381963,2775 138.34700204988042,2775 143.23681243594123,2775 148.12662282200205,2775 153.016356337547,2775 157.90616672360778,2775 162.7959771096686,2775 167.68578749572941,2775 172.57559788179026,2775 177.46540826785105,2775 182.35521865391186,2775 187.24495216945678,2775 192.13476255551763,2775 197.0245729415784,2775 201.91438332763923,2775 206.80419371370004,2775 211.69400409976086,2775 216.58381448582168,2775 221.47354800136662,2775 226.3633583874274,2775 231.25316877348823,2775 236.14297915954901,2775 241.03278954560986,2775 245.92259993167065,2775 250.81241031773146,2775 255.7021438332764,2775 260.5919542193372,2775 265.48176460539804,2775 270.37157499145883,2775 275.2613853775197,2775 280.1511957635805,2775 285.04100614964125,2775 289.9307396651862,2775 294.82055005124704,2775 299.7103604373078,2775 304.60017082336867,2775 309.48998120942946,2775 314.37979159549025,2775 319.2696019815511,2775 324.15933549709604,2775 329.0491458831568,2775 333.93895626921767,2775 338.82876665527846,2775 343.71857704133924,2775 348.6083874274001,2775 353.4981978134609,2775 358.3879313290058,2775 363.27774171506667,2775 368.16755210112746,2775 373.05736248718824,2775 377.94717287324903,2775 382.83698325930993,2775 387.7267167748548,2775 392.6165271609156,2775 397.50633754697645,2775 402.39614793303724,2775 407.28595831909803,2775 412.17576870515893,2775 417.0655790912197,2775 421.9553126067646,2775 426.8451229928254,2775 431.73493337888624,2775 436.6247437649471,2775 441.51455415100787,2775 446.4043645370687,2775 451.2941749231295,2775 456.1839084386744,2775 461.07371882473524,2775 465.9635292107961,2775 470.85333959685687,2775 475.7431499829177,2775 480.6329603689785,2775 485.5227707550393,2775 490.4125042705843,2775 495.3023146566451,2775 500.19212504270587,2775 505.08193542876666,2775 509.9717458148275,2775 514.8615562008883,2775 519.7513665869491,2775 524.6411001024941,2775 529.5309104885548,2775 534.4207208746157,2775 539.3105312606765,2775 544.2003416467373,2775 549.0901520327982,2775 553.9799624188589,2775 553.9799316070437,3000" fill="#dde6ea" stroke="#516575" stroke-width="2"/><rect x="126.3492517300364" y="2792.449607106252" width="364.5968568500171" height="207.5503928937479" fill="#f8fafc" stroke="#467185"/><text x="308.64768015504495" y="2992" font-size="12" text-anchor="middle">GARAGE-GATE</text><text x="35" y="3035" font-size="18" text-anchor="start">a → b · высота 2927 мм–2927 мм · толщина 300 мм</text><text x="35" y="3115" font-size="17" text-anchor="start">Отсчёт a → b по координатам паспорта. Скосы предварительные; профиль показан по внутренней грани.</text></g></svg>