<svg xmlns="http://www.w3.org/2000/svg" width="1300" height="2400" viewBox="0 0 1300 2400"><rect width="100%" height="100%" fill="#f8fafc"/><g font-family="DejaVu Sans,Arial,sans-serif" fill="#213341"><text x="35" y="40" font-size="26" text-anchor="start">Детская · развёртки стен</text><text x="35" y="75" font-size="20" text-anchor="start">Стена 1 · 3230 мм · F2-W01</text><polygon points="65,340 65,197.75862068965517 67.38669950738917,196.0735960591133 69.77339901477832,194.3884975369458 72.16009852216749,192.70347290640393 74.54679802955665,191.01837438423647 76.93349753694581,189.3333497536946 79.32019704433498,187.64832512315272 81.70689655172414,185.96322660098522 84.09359605911331,184.27820197044335 86.48029556650246,182.59310344827585 88.86699507389163,180.908078817734 91.25369458128078,179.22305418719213 93.64039408866995,177.5379556650246 96.0270935960591,175.85293103448276 98.41379310344828,174.16783251231527 100.80049261083744,172.48280788177343 103.1871921182266,170.79778325123152 105.57389162561577,169.11268472906403 107.96059113300493,167.42766009852218 110.34729064039409,165.7425615763547 112.73399014778326,164.0575369458128 115.12068965517241,162.37251231527094 117.50738916256157,160.68741379310347 119.89408866995075,159.00238916256157 122.2807881773399,157.31729064039408 124.66748768472905,155.63226600985223 127.05418719211822,153.94724137931033 129.4408866995074,152.26214285714286 131.82758620689657,150.577118226601 134.21428571428572,148.8920197044335 136.60098522167488,147.20699507389165 138.98768472906403,145.52197044334974 141.3743842364532,143.83687192118228 143.76108374384236,142.1518472906404 146.14778325123154,140.46674876847294 148.5344827586207,138.78172413793104 150.92118226600985,137.0966995073892 153.307881773399,135.4116009852217 155.69458128078819,133.7265763546798 158.08128078817734,132.04147783251233 160.46798029556652,130.35645320197045 162.85467980295567,128.67142857142858 165.24137931034483,126.98633004926108 167.62807881773398,125.30130541871921 170.01477832512313,123.61620689655174 172.4014778325123,121.93118226600984 174.7881773399015,120.246157635468 177.17487684729065,118.5610591133005 179.5615763546798,116.87603448275863 181.94827586206895,115.19093596059116 184.3349753694581,115 186.7216748768473,115 189.10837438423644,115 191.49507389162562,115 193.88177339901478,115 196.26847290640393,115 198.6551724137931,115 201.04187192118226,115 203.42857142857142,115 205.81527093596057,115 208.20197044334975,115 210.5886699507389,115 212.97536945812809,115 215.36206896551724,115 217.74876847290642,115 220.13546798029554,115 222.52216748768473,115 224.90886699507388,115 227.29556650246306,115 229.6822660098522,115 232.0689655172414,115 234.45566502463052,115 236.8423645320197,115 239.22906403940885,115 241.61576354679804,115 244.0024630541872,115 246.38916256157637,115 248.7758620689655,115 251.16256157635468,115 253.54926108374383,115 255.935960591133,115 258.3226600985222,115 260.70935960591135,115 263.0960591133005,115 265.48275862068965,115 267.8694581280788,115 270.25615763546796,115 272.6428571428571,115 275.02955665024626,115 277.4162561576354,115 279.8029556650246,115 282.1896551724138,115 284.576354679803,115 286.9630541871921,115 289.3497536945813,115 291.73645320197045,115 294.1231527093596,115 296.50985221674875,115 298.8965517241379,115 301.28325123152706,115 303.6699507389162,115 303.6699507389162,340" fill="#dde6ea" stroke="#516575" stroke-width="2"/><rect x="171.4039408866995" y="166.72413793103448" width="118.96551724137933" height="173.27586206896552" fill="#b0ddf1" stroke="#467185"/><text x="230.88669950738915" y="332" font-size="12" text-anchor="middle">F2-WIN01</text><text x="35" y="375" font-size="18" text-anchor="start">a → b · высота 1925 мм–3045 мм · толщина 600 мм</text><text x="35" y="455" font-size="20" text-anchor="start">Стена 2 · 3075 мм · F2-W08 + F2-W10</text><polygon points="65,720 65,495 67.27216748768473,495 69.54433497536945,495 71.81650246305419,495 74.08866995073892,495 76.36083743842364,495 78.63300492610837,495 80.90517241379311,495 83.17733990147784,495 85.44950738916256,495 87.72167487684729,495 89.99384236453201,495 92.26600985221674,495 94.53817733990148,495 96.8103448275862,495 99.08251231527093,495 101.35467980295567,495 103.6268472906404,495 105.89901477832512,495 108.17118226600985,495 110.44334975369458,495 112.7155172413793,495 114.98768472906403,495 117.25985221674877,495 119.5320197044335,495 121.80418719211823,495 124.07635467980296,495 126.34852216748769,495 128.6206896551724,495 130.89285714285714,495 133.16502463054186,495 135.43719211822662,495 137.70935960591135,495 139.98152709359607,495 142.2536945812808,495 144.52586206896552,495 146.79802955665025,495 149.07019704433498,495 151.3423645320197,495 153.61453201970443,495 155.88669950738915,495 158.15886699507388,495 160.4310344827586,495 162.70320197044333,495 164.97536945812806,495 167.2475369458128,495 169.51970443349754,495 171.79187192118226,495 174.064039408867,495 176.33620689655174,495 178.60837438423647,495 180.88054187192117,495 183.15270935960592,495 185.42487684729065,495 187.69704433497537,495 189.9692118226601,495 192.24137931034483,495 194.51354679802955,495 196.78571428571428,495 199.057881773399,495 201.33004926108373,495 203.60221674876848,495 205.8743842364532,495 208.1465517241379,495 210.41871921182266,495 212.6908866995074,495 214.9630541871921,495 217.23522167487684,495 219.5073891625616,495 221.7795566502463,495 224.05172413793102,495 226.32389162561577,495 228.5960591133005,495 230.8682266009852,495 233.14039408866995,495 235.41256157635468,495 237.68472906403943,495 239.95689655172413,495 242.22906403940885,495 244.5012315270936,495 246.7733990147783,495 249.04556650246303,495 251.3177339901478,495 253.5899014778325,495 255.86206896551724,495 258.134236453202,495 260.40640394088666,495 262.67857142857144,495 264.9507389162561,495 267.2229064039409,495 269.4950738916256,495 271.76724137931035,495 274.0394088669951,495 276.3115763546798,495 278.5837438423645,495 280.85591133004925,495 283.128078817734,495 285.4002463054187,495 287.6724137931035,495 289.94458128078816,495 292.21674876847294,495 292.21674876847294,720" fill="#dde6ea" stroke="#516575" stroke-width="2"/><text x="35" y="755" font-size="18" text-anchor="start">a → b · высота 3045 мм–3045 мм · толщина 100 мм</text><text x="35" y="835" font-size="20" text-anchor="start">Стена 3 · 255 мм · F2-W08 + F2-W10</text><polygon points="65,1100 65,875 65.1884236453202,875 65.3768472906404,875 65.5652709359606,875 65.75369458128078,875 65.94211822660098,875 66.13054187192118,875 66.31896551724138,875 66.50738916256158,875 66.69581280788178,875 66.88423645320196,875 67.07266009852216,875 67.26108374384236,875 67.44950738916256,875 67.63793103448276,875 67.82635467980296,875 68.01477832512316,875 68.20320197044335,875 68.39162561576354,875 68.58004926108374,875 68.76847290640394,875 68.95689655172414,875 69.14532019704433,875 69.33374384236453,875 69.52216748768473,875 69.71059113300493,875 69.89901477832512,875 70.08743842364532,875 70.27586206896552,875 70.46428571428571,875 70.65270935960591,875 70.8411330049261,875 71.0295566502463,875 71.2179802955665,875 71.4064039408867,875 71.59482758620689,875 71.78325123152709,875 71.97167487684729,875 72.16009852216749,875 72.34852216748769,875 72.53694581280789,875 72.72536945812809,875 72.91379310344827,875 73.10221674876847,875 73.29064039408867,875 73.47906403940887,875 73.66748768472907,875 73.85591133004925,875 74.04433497536945,875 74.23275862068965,875 74.42118226600985,875 74.60960591133005,875 74.79802955665025,875 74.98645320197045,875 75.17487684729063,875 75.36330049261083,875 75.55172413793103,875 75.74014778325123,875 75.92857142857143,875 76.11699507389163,875 76.30541871921181,875 76.49384236453201,875 76.68226600985221,875 76.87068965517241,875 77.05911330049261,875 77.24753694581281,875 77.43596059113301,875 77.6243842364532,875 77.8128078817734,875 78.0012315270936,875 78.1896551724138,875 78.37807881773399,875 78.56650246305419,875 78.75492610837438,875 78.94334975369458,875 79.13177339901478,875 79.32019704433498,875 79.50862068965517,875 79.69704433497537,875 79.88546798029557,875 80.07389162561576,875 80.26231527093596,875 80.45073891625616,875 80.63916256157636,875 80.82758620689656,875 81.01600985221674,875 81.20443349753694,875 81.39285714285714,875 81.58128078817734,875 81.76970443349754,875 81.95812807881774,875 82.14655172413794,875 82.33497536945814,875 82.52339901477832,875 82.71182266009852,875 82.90024630541872,875 83.08866995073892,875 83.2770935960591,875 83.4655172413793,875 83.6539408866995,875 83.8423645320197,875 83.8423645320197,1100" fill="#dde6ea" stroke="#516575" stroke-width="2"/><text x="35" y="1135" font-size="18" text-anchor="start">a → b · высота 3045 мм–3045 мм · толщина 100 мм</text><text x="35" y="1215" font-size="20" text-anchor="start">Стена 4 · 1090 мм · F2-W11</text><polygon points="65,1480 65,1255 65.80541871921183,1255 66.61083743842364,1255 67.41625615763547,1255 68.22167487684729,1255 69.02709359605912,1255 69.83251231527093,1255 70.63793103448276,1255 71.44334975369458,1255 72.2487684729064,1255 73.05418719211822,1255 73.85960591133005,1255 74.66502463054186,1255 75.4704433497537,1255 76.27586206896552,1255 77.08128078817734,1255 77.88669950738917,1255 78.69211822660098,1255 79.49753694581281,1255 80.30295566502463,1255 81.10837438423646,1255 81.91379310344827,1255 82.7192118226601,1255 83.52463054187191,1255 84.33004926108374,1255 85.13546798029557,1255 85.94088669950739,1255 86.7463054187192,1255 87.55172413793103,1255 88.35714285714286,1255 89.16256157635468,1255 89.9679802955665,1255 90.77339901477832,1255 91.57881773399015,1255 92.38423645320196,1255 93.1896551724138,1255 93.99507389162562,1255 94.80049261083744,1255 95.60591133004925,1255 96.41133004926108,1255 97.21674876847291,1255 98.02216748768473,1255 98.82758620689654,1255 99.63300492610838,1255 100.4384236453202,1255 101.24384236453201,1255 102.04926108374383,1255 102.85467980295567,1255 103.66009852216749,1255 104.4655172413793,1255 105.27093596059113,1255 106.07635467980296,1255 106.88177339901478,1255 107.68719211822659,1255 108.49261083743842,1255 109.29802955665025,1255 110.10344827586206,1255 110.90886699507388,1255 111.71428571428571,1255 112.51970443349754,1255 113.32512315270935,1255 114.13054187192118,1255 114.93596059113301,1255 115.74137931034483,1255 116.54679802955664,1255 117.35221674876847,1255 118.1576354679803,1255 118.96305418719211,1255 119.76847290640393,1255 120.57389162561576,1255 121.37931034482759,1255 122.1847290640394,1255 122.99014778325123,1255 123.79556650246305,1255 124.60098522167488,1255 125.40640394088669,1255 126.21182266009852,1255 127.01724137931035,1255 127.82266009852216,1255 128.62807881773398,1255 129.43349753694582,1255 130.23891625615764,1255 131.04433497536945,1255 131.8497536945813,1255 132.65517241379308,1255 133.46059113300493,1255 134.26600985221677,1255 135.07142857142856,1255 135.8768472906404,1255 136.6822660098522,1255 137.48768472906403,1255 138.29310344827587,1255 139.09852216748766,1255 139.9039408866995,1255 140.70935960591135,1255 141.51477832512316,1255 142.32019704433498,1255 143.1256157635468,1255 143.9310344827586,1255 144.73645320197045,1255 145.54187192118226,1255 145.54187192118223,1480" fill="#dde6ea" stroke="#516575" stroke-width="2"/><rect x="80.14778325123153" y="1332.2167487684728" width="65.39408866995072" height="147.7832512315271" fill="#f8fafc" stroke="#467185"/><text x="112.84482758620689" y="1472" font-size="12" text-anchor="middle">F2-D03</text><text x="35" y="1515" font-size="18" text-anchor="start">a → b · высота 3045 мм–3045 мм · толщина 100 мм</text><text x="35" y="1595" font-size="20" text-anchor="start">Стена 5 · 3485 мм · F2-W07</text><polygon points="65,1860 65,1635 67.57512315270935,1635 70.15024630541872,1635 72.72536945812809,1635 75.30049261083744,1635 77.87561576354679,1635 80.45073891625616,1635 83.02586206896552,1635 85.60098522167488,1635 88.17610837438423,1635 90.7512315270936,1635 93.32635467980296,1635 95.90147783251231,1635 98.47660098522167,1635 101.05172413793103,1635 103.6268472906404,1635 106.20197044334975,1635 108.77709359605912,1635 111.35221674876847,1635 113.92733990147784,1635 116.50246305418719,1635 119.07758620689654,1635 121.65270935960592,1635 124.22783251231527,1635 126.80295566502463,1635 129.37807881773398,1635 131.95320197044333,1635 134.52832512315268,1635 137.10344827586206,1635 139.67857142857144,1635 142.2536945812808,1635 144.82881773399015,1635 147.4039408866995,1635 149.97906403940885,1635 152.55418719211823,1635 155.12931034482756,1635 157.70443349753694,1635 160.27955665024632,1635 162.85467980295567,1635 165.42980295566502,1635 168.00492610837438,1635 170.58004926108373,1635 173.15517241379308,1635 175.73029556650246,1635 178.30541871921184,1635 180.88054187192117,1635 183.45566502463055,1635 186.0307881773399,1635 188.60591133004925,1635 191.1810344827586,1635 193.75615763546799,1635 196.33128078817734,1635 198.9064039408867,1635 201.48152709359607,1635 204.0566502463054,1635 206.63177339901478,1635.944778325123 209.20689655172413,1637.762881773399 211.7820197044335,1639.5809852216748 214.35714285714286,1641.3990886699507 216.9322660098522,1643.217118226601 219.5073891625616,1645.0352216748768 222.08251231527092,1646.8533251231527 224.65763546798027,1648.6714285714286 227.23275862068965,1650.4894581280787 229.807881773399,1652.3075615763546 232.38300492610836,1654.1256650246305 234.95812807881774,1655.9437684729064 237.5332512315271,1657.7617980295568 240.10837438423647,1659.5799014778324 242.68349753694582,1661.3980049261083 245.25862068965515,1663.2161083743842 247.83374384236453,1665.0341379310344 250.40886699507388,1666.8522413793103 252.98399014778323,1668.6703448275862 255.5591133004926,1670.488448275862 258.134236453202,1672.3064778325124 260.70935960591135,1674.124581280788 263.2844827586207,1675.942684729064 265.85960591133005,1677.76078817734 268.4347290640394,1679.57881773399 271.00985221674875,1681.396921182266 273.5849753694581,1683.2150246305418 276.16009852216746,1685.0331280788178 278.7352216748768,1686.851157635468 281.31034482758616,1688.6692610837438 283.8854679802956,1690.4873645320197 286.4605911330049,1692.3054679802956 289.0357142857143,1694.1234975369457 291.6108374384237,1695.9416009852216 294.185960591133,1697.7597044334975 296.76108374384233,1699.5778078817734 299.33620689655174,1701.3958374384238 301.9113300492611,1703.2139408866994 304.48645320197045,1705.0320443349754 307.0615763546798,1706.8501477832513 309.63669950738915,1708.6681773399014 312.2118226600985,1710.4862807881773 314.78694581280786,1712.3043842364532 317.3620689655172,1714.122487684729 319.93719211822656,1715.9405172413794 322.51231527093597,1717.7586206896551 322.51231527093597,1860" fill="#dde6ea" stroke="#516575" stroke-width="2"/><text x="35" y="1895" font-size="18" text-anchor="start">a → b · высота 1925 мм–3045 мм · толщина 405 мм</text><text x="35" y="1975" font-size="20" text-anchor="start">Стена 6 · 4165 мм · F2-W02</text><polygon points="65,2240 65,2097.7586206896553 68.07758620689656,2097.7586206896553 71.15517241379311,2097.7586206896553 74.23275862068965,2097.7586206896553 77.3103448275862,2097.7586206896553 80.38793103448276,2097.7586206896553 83.4655172413793,2097.7586206896553 86.54310344827586,2097.7586206896553 89.62068965517241,2097.7586206896553 92.69827586206897,2097.7586206896553 95.77586206896552,2097.7586206896553 98.85344827586206,2097.7586206896553 101.93103448275862,2097.7586206896553 105.00862068965517,2097.7586206896553 108.08620689655172,2097.7586206896553 111.16379310344828,2097.7586206896553 114.24137931034483,2097.7586206896553 117.31896551724137,2097.7586206896553 120.39655172413794,2097.7586206896553 123.47413793103448,2097.7586206896553 126.55172413793103,2097.7586206896553 129.6293103448276,2097.7586206896553 132.70689655172413,2097.7586206896553 135.7844827586207,2097.7586206896553 138.86206896551724,2097.7586206896553 141.93965517241378,2097.7586206896553 145.01724137931035,2097.7586206896553 148.0948275862069,2097.7586206896553 151.17241379310343,2097.7586206896553 154.25,2097.7586206896553 157.32758620689657,2097.7586206896553 160.40517241379308,2097.7586206896553 163.48275862068965,2097.7586206896553 166.56034482758622,2097.7586206896553 169.63793103448273,2097.7586206896553 172.7155172413793,2097.7586206896553 175.79310344827587,2097.7586206896553 178.8706896551724,2097.7586206896553 181.94827586206895,2097.7586206896553 185.02586206896552,2097.7586206896553 188.10344827586206,2097.7586206896553 191.1810344827586,2097.7586206896553 194.25862068965517,2097.7586206896553 197.33620689655172,2097.7586206896553 200.41379310344828,2097.7586206896553 203.49137931034483,2097.7586206896553 206.56896551724137,2097.7586206896553 209.6465517241379,2097.7586206896553 212.72413793103448,2097.7586206896553 215.80172413793102,2097.7586206896553 218.8793103448276,2097.7586206896553 221.95689655172416,2097.7586206896553 225.03448275862067,2097.7586206896553 228.11206896551724,2097.7586206896553 231.18965517241378,2097.7586206896553 234.26724137931035,2097.7586206896553 237.3448275862069,2097.7586206896553 240.42241379310343,2097.7586206896553 243.5,2097.7586206896553 246.57758620689654,2097.7586206896553 249.6551724137931,2097.7586206896553 252.73275862068965,2097.7586206896553 255.8103448275862,2097.7586206896553 258.88793103448273,2097.7586206896553 261.9655172413793,2097.7586206896553 265.0431034482759,2097.7586206896553 268.12068965517244,2097.7586206896553 271.19827586206895,2097.7586206896553 274.27586206896547,2097.7586206896553 277.3534482758621,2097.7586206896553 280.4310344827586,2097.7586206896553 283.5086206896552,2097.7586206896553 286.58620689655174,2097.7586206896553 289.66379310344826,2097.7586206896553 292.7413793103448,2097.7586206896553 295.8189655172414,2097.7586206896553 298.8965517241379,2097.7586206896553 301.9741379310345,2097.7586206896553 305.05172413793105,2097.7586206896553 308.12931034482756,2097.7586206896553 311.2068965517241,2097.7586206896553 314.2844827586207,2097.7586206896553 317.3620689655172,2097.7586206896553 320.4396551724138,2097.7586206896553 323.51724137931035,2097.7586206896553 326.59482758620686,2097.7586206896553 329.67241379310343,2097.7586206896553 332.75,2097.7586206896553 335.82758620689657,2097.7586206896553 338.9051724137931,2097.7586206896553 341.98275862068965,2097.7586206896553 345.0603448275862,2097.7586206896553 348.13793103448273,2097.7586206896553 351.2155172413793,2097.7586206896553 354.2931034482758,2097.7586206896553 357.3706896551724,2097.7586206896553 360.44827586206895,2097.7586206896553 363.5258620689655,2097.7586206896553 366.60344827586204,2097.7586206896553 369.6810344827586,2097.7586206896553 372.7586206896552,2097.7586206896553 372.7586206896552,2240" fill="#dde6ea" stroke="#516575" stroke-width="2"/><text x="35" y="2275" font-size="18" text-anchor="start">a → b · высота 1925 мм–1925 мм · толщина 600 мм</text><text x="35" y="2355" font-size="17" text-anchor="start">Отсчёт a → b по координатам паспорта. Скосы предварительные; профиль показан по внутренней грани.</text></g></svg>