<svg xmlns="http://www.w3.org/2000/svg" width="1100" height="1010" viewBox="0 0 1100 1010"><rect width="100%" height="100%" fill="#f8fafc"/><g font-family="DejaVu Sans,Arial,sans-serif" fill="#213341"><text x="40" y="45" font-size="28" text-anchor="start">Спальня · F2-BED</text><text x="40" y="80" font-size="18" text-anchor="start">Внутренний план · мебель и оборудование · X →, Z ↓</text><polygon points="204.60984393757496,140 749.6518607442979,140 749.6518607442979,830.0000000000001 140,830.0000000000001 140,649.4237695078032 204.60984393757496,649.4237695078032" fill="#e3edf0" stroke="#94a3b8" stroke-dasharray="5 5"/><g transform="translate(555.8223289315727 474.64585834333735) rotate(90)"><rect x="-149.0996398559424" y="-190.51620648259305" width="298.1992797118848" height="381.0324129651861" fill="#d7bb97" fill-opacity=".65" stroke="#846647"/><path d="M -149.0996398559424 -190.51620648259305 h 298.1992797118848" stroke="#503c2b" stroke-width="3"/></g><g transform="translate(698.295318127251 282.4729891956783) rotate(0)"><rect x="-41.41656662665066" y="-41.41656662665066" width="82.83313325330133" height="82.83313325330133" fill="#d7bb97" fill-opacity=".65" stroke="#846647"/><path d="M -41.41656662665066 -41.41656662665066 h 82.83313325330133" stroke="#503c2b" stroke-width="3"/></g><g transform="translate(698.295318127251 666.8187274909965) rotate(0)"><rect x="-41.41656662665066" y="-41.41656662665066" width="82.83313325330133" height="82.83313325330133" fill="#d7bb97" fill-opacity=".65" stroke="#846647"/><path d="M -41.41656662665066 -41.41656662665066 h 82.83313325330133" stroke="#503c2b" stroke-width="3"/></g><g transform="translate(241.05642256902752 479.6158463385354) rotate(-90)"><rect x="-115.96638655462185" y="-33.13325330132053" width="231.9327731092437" height="66.26650660264106" fill="#d7bb97" fill-opacity=".65" stroke="#846647"/><path d="M -115.96638655462185 -33.13325330132053 h 231.9327731092437" stroke="#503c2b" stroke-width="3"/></g><g transform="translate(571.5606242496999 156.56662665066025) rotate(0)"><rect x="-30.648259303721492" y="-8.283313325330132" width="61.296518607442984" height="16.566626650660265" fill="#d7bb97" fill-opacity=".65" stroke="#846647"/><path d="M -30.648259303721492 -8.283313325330132 h 61.296518607442984" stroke="#503c2b" stroke-width="3"/></g><g transform="translate(158.2232893157262 757.1068427370949) rotate(-90)"><rect x="-62.124849939975995" y="-16.566626650660265" width="124.24969987995199" height="33.13325330132053" fill="#d7bb97" fill-opacity=".65" stroke="#846647"/><path d="M -62.124849939975995 -16.566626650660265 h 124.24969987995199" stroke="#503c2b" stroke-width="3"/></g><text x="555.8223289315727" y="479.64585834333735" font-size="14" text-anchor="middle">M1</text><text x="698.295318127251" y="287.4729891956783" font-size="14" text-anchor="middle">M2</text><text x="698.295318127251" y="671.8187274909965" font-size="14" text-anchor="middle">M3</text><text x="241.05642256902752" y="484.6158463385354" font-size="14" text-anchor="middle">M4</text><text x="571.5606242496999" y="161.56662665066025" font-size="14" text-anchor="middle">M5</text><text x="158.2232893157262" y="762.1068427370949" font-size="14" text-anchor="middle">M6</text><path d="M 204.60984393757496 140 L 749.6518607442979 140" stroke="#334155" stroke-width="7"/><path d="M 237.74309723889553 140 L 514.4057623049221 140" stroke="#0284c7" stroke-width="9"/><g transform="translate(477.1308523409364 98) rotate(0)"><text x="0" y="5" font-size="17" text-anchor="middle">1 · 3290 мм</text></g><path d="M 749.6518607442979 140 L 749.6518607442979 830.0000000000001" stroke="#334155" stroke-width="7"/><g transform="translate(791.6518607442979 485.00000000000006) rotate(-90)"><text x="0" y="5" font-size="17" text-anchor="middle">2 · 4165 мм</text></g><path d="M 749.6518607442979 830.0000000000001 L 140 830.0000000000001" stroke="#334155" stroke-width="7"/><path d="M 660.1920768307323 830.0000000000001 L 524.345738295318 830.0000000000001" stroke="#f8fafc" stroke-width="9"/><g transform="translate(444.82593037214895 872.0000000000001) rotate(0)"><text x="0" y="5" font-size="17" text-anchor="middle">3 · 3680 мм</text></g><path d="M 140 830.0000000000001 L 140 649.4237695078032" stroke="#334155" stroke-width="7"/><path d="M 140 830.0000000000001 L 140 682.5570228091237" stroke="#f8fafc" stroke-width="9"/><g transform="translate(98 739.7118847539016) rotate(-90)"><text x="0" y="5" font-size="17" text-anchor="middle">4 · 1090 мм</text></g><path d="M 140 649.4237695078032 L 204.60984393757496 649.4237695078032" stroke="#334155" stroke-width="7"/><g transform="translate(172.30492196878748 607.4237695078032) rotate(0)"><text x="0" y="5" font-size="17" text-anchor="middle">5</text></g><path d="M 204.60984393757496 649.4237695078032 L 204.60984393757496 140" stroke="#334155" stroke-width="7"/><path d="M 204.60984393757496 314.77791116446576 L 204.60984393757496 165.6782713085234" stroke="#f8fafc" stroke-width="9"/><g transform="translate(162.60984393757496 394.7118847539016) rotate(-90)"><text x="0" y="5" font-size="17" text-anchor="middle">6 · 3075 мм</text></g><text x="40" y="940" font-size="17" text-anchor="start">Числа у стен → развёртки. M → список мебели. Синее — окна, разрыв — дверь/проход.</text><text x="40" y="974" font-size="18" text-anchor="start">Площадь 14.13 м² · размеры и координаты — в паспорте</text></g></svg>